<?xml version="1.0" encoding="utf-8"?>
<svg xmlns="http://www.w3.org/2000/svg" xmlns:svg="http://www.w3.org/2000/svg" version="1.1" viewBox="0 0 1400 340">
	<title>The titlepage for the Standard Ebooks edition of The Slaves of Paris, by Emile Gaboriau</title>
	<g aria-label="THE SLAVES OF PARIS">
		<path d="m 130.43786,68.245613 h 18.33918 V 130 h 17.59064 V 68.245613 h 18.33918 V 52.807016 h -54.269 z"/>
		<path d="m 213.6323,99.029239 h 24.88889 V 130 h 17.59064 V 52.807016 H 238.52119 V 83.590642 H 213.6323 V 52.807016 H 196.04166 V 130 h 17.59064 z"/>
		<path d="M 316.47734,52.807016 H 272.31359 V 130 h 44.16375 v -15.4386 h -26.5731 V 99.029239 h 25.45029 V 83.590642 H 289.90424 V 68.245613 h 26.5731 z"/>
		<path d="m 388.79167,51.403507 c -12.44445,0 -25.16959,9.169591 -25.16959,23.578948 0,8.046784 5.4269,15.251462 14.69006,19.836258 9.16959,4.584795 17.4035,7.111107 17.4035,12.725147 0,7.20468 -7.29824,7.57895 -11.1345,7.57895 -8.60819,0 -18.90058,-8.70176 -18.90058,-8.70176 l -8.79533,14.78363 c 0,0 10.94737,10.19883 29.00585,10.19883 15.06433,0 29.09942,-6.45614 29.09942,-24.88889 0,-10.105264 -9.45029,-17.40351 -18.05848,-21.052632 -8.79532,-3.742691 -16.09357,-6.83041 -16.09357,-11.134504 0,-4.210526 3.18129,-6.923976 9.16959,-6.923976 7.95322,0 15.62573,5.333333 15.62573,5.333333 l 7.11111,-14.035088 c 0,0 -9.91812,-7.298246 -23.95321,-7.298246 z"/>
		<path d="M 445.80336,52.807016 H 428.21272 V 130 h 44.16374 v -15.4386 h -26.5731 z"/>
		<path d="M 526.6937,52.807016 H 510.413 L 479.2551,130 h 18.90059 l 5.7076,-15.4386 h 29.38012 L 538.95101,130 h 18.90059 z m 0.5614,46.31579 h -17.4035 l 8.60818,-22.45614 h 0.18714 z"/>
		<path d="m 581.87062,130 h 13.84795 L 628.09284,52.807016 H 608.25658 L 588.79459,103.52047 569.3326,52.807016 h -19.83625 z"/>
		<path d="M 680.17617,52.807016 H 636.01243 V 130 h 44.16374 v -15.4386 h -26.5731 V 99.029239 h 25.4503 V 83.590642 h -25.4503 V 68.245613 h 26.5731 z"/>
		<path d="m 723.73321,51.403507 c -12.44444,0 -25.16959,9.169591 -25.16959,23.578948 0,8.046784 5.4269,15.251462 14.69006,19.836258 9.16959,4.584795 17.40351,7.111107 17.40351,12.725147 0,7.20468 -7.29825,7.57895 -11.13451,7.57895 -8.60818,0 -18.90058,-8.70176 -18.90058,-8.70176 l -8.79532,14.78363 c 0,0 10.94737,10.19883 29.00585,10.19883 15.06432,0 29.09941,-6.45614 29.09941,-24.88889 0,-10.105264 -9.45029,-17.40351 -18.05848,-21.052632 -8.79532,-3.742691 -16.09357,-6.83041 -16.09357,-11.134504 0,-4.210526 3.18129,-6.923976 9.1696,-6.923976 7.95321,0 15.62573,5.333333 15.62573,5.333333 l 7.11111,-14.035088 c 0,0 -9.91813,-7.298246 -23.95322,-7.298246 z"/>
		<path d="m 790.27703,91.356724 c 0,22.549706 16.09357,40.046786 38.92398,40.046786 22.17544,0 38.83041,-17.49708 38.83041,-40.046786 0,-22.549708 -17.40351,-39.953217 -38.83041,-39.953217 -21.23977,0 -38.92398,17.403509 -38.92398,39.953217 z m 18.99416,0 c 0,-11.508772 6.36257,-23.017544 19.92982,-23.017544 13.66082,0 19.83626,11.508772 19.83626,23.017544 0,11.508776 -5.80117,23.017546 -19.83626,23.017546 -14.40936,0 -19.92982,-11.50877 -19.92982,-23.017546 z"/>
		<path d="M 925.42468,52.807016 H 880.7931 V 130 h 17.59064 V 99.029239 H 923.3662 V 83.590642 H 898.38374 V 68.245613 h 27.04094 z"/>
		<path d="M 969.37501,52.807016 V 130 h 17.59064 v -28.63158 h 10.5731 c 15.06435,0 26.38595,-8.888888 26.38595,-24.795322 0,-16 -11.3216,-23.766082 -26.38595,-23.766082 z m 17.59064,34.526317 V 66.842104 h 4.95907 c 6.92397,0 13.47368,2.339181 13.47368,10.292398 0,7.859649 -6.54971,10.198831 -13.47368,10.198831 z"/>
		<path d="m 1069.8662,52.807016 h -16.2807 L 1022.4277,130 h 18.9005 l 5.7076,-15.4386 h 29.3802 L 1082.1236,130 h 18.9005 z m 0.5615,46.31579 h -17.4036 l 8.6082,-22.45614 h 0.1872 z"/>
		<path d="M 1108.9437,52.807016 V 130 h 17.5907 V 99.497075 L 1150.1133,130 h 22.3626 l -26.5731,-31.906433 c 9.4503,-2.994152 15.8129,-10.760234 15.8129,-22.362574 0,-15.157895 -10.8538,-22.923977 -25.1696,-22.923977 z m 17.5907,34.245615 V 66.842104 h 2.0585 c 6.6432,0 14.5964,0.467836 14.5964,10.105263 0,9.637428 -7.9532,10.105264 -14.5964,10.105264 z"/>
		<path d="m 1198.6031,52.807016 h -17.5906 V 130 h 17.5906 z"/>
		<path d="m 1241.5037,51.403507 c -12.4445,0 -25.1696,9.169591 -25.1696,23.578948 0,8.046784 5.4269,15.251462 14.69,19.836258 9.1696,4.584795 17.4035,7.111107 17.4035,12.725147 0,7.20468 -7.2982,7.57895 -11.1345,7.57895 -8.6082,0 -18.9006,-8.70176 -18.9006,-8.70176 l -8.7953,14.78363 c 0,0 10.9474,10.19883 29.0059,10.19883 15.0643,0 29.0994,-6.45614 29.0994,-24.88889 0,-10.105264 -9.4503,-17.40351 -18.0585,-21.052632 -8.7953,-3.742691 -16.0936,-6.83041 -16.0936,-11.134504 0,-4.210526 3.1813,-6.923976 9.1696,-6.923976 7.9532,0 15.6258,5.333333 15.6258,5.333333 l 7.1111,-14.035088 c 0,0 -9.9182,-7.298246 -23.9532,-7.298246 z"/>
	</g>
	<g aria-label="EMILE GABORIAU">
		<path d="M 390.48301,232.10526 H 357.3602 V 290 h 33.12281 v -11.57895 h -19.92983 v -11.64912 h 19.08772 v -11.57895 h -19.08772 v -11.50877 h 19.92983 z"/>
		<path d="m 450.92709,290 h 13.19298 l -5.19298,-57.89474 H 444.892 l -12.84211,33.40351 -12.8421,-33.40351 H 405.1727 L 399.97972,290 h 13.19298 l 2.73684,-34.31579 h 0.35088 l 11.85965,33.96491 h 7.85965 l 11.85965,-33.96491 h 0.35087 z"/>
		<path d="M 487.59814,232.10526 H 474.40515 V 290 h 13.19299 z"/>
		<path d="M 514.25384,232.10526 H 501.06085 V 290 h 33.12281 v -11.57895 h -19.92982 z"/>
		<path d="M 578.79441,232.10526 H 545.6716 V 290 h 33.12281 v -11.57895 h -19.92983 v -11.64912 h 19.08772 v -11.57895 h -19.08772 v -11.50877 h 19.92983 z"/>
		<path d="m 667.91832,257.57895 h -26.73684 v 10.17544 h 13.33333 c 0,7.08772 -6.24561,11.15789 -12.5614,11.15789 -8.14035,0 -14.73684,-8 -14.73684,-17.82456 0,-10.03509 6.59649,-18.10526 14.73684,-18.10526 5.12281,0 9.54386,2.03508 12.91228,7.43859 l 8.63158,-9.47368 c -5.05263,-6.10526 -12.14035,-9.89474 -22.31579,-9.89474 -16.2807,0 -28.21053,13.40351 -28.21053,30.03509 0,16.5614 12.63158,29.96491 28.21053,29.96491 11.36842,0 23.57895,-6.24561 26.73684,-20.91228 z"/>
		<path d="M 708.08497,232.10526 H 695.87444 L 672.50602,290 h 14.17544 l 4.2807,-11.57895 h 22.03509 L 717.27795,290 h 14.17544 z m 0.42105,34.73685 H 695.45339 L 701.90953,250 h 0.14035 z"/>
		<path d="M 738.6431,232.10526 V 290 h 21.96491 c 12,0 18.94737,-6.59649 18.94737,-16.14035 0,-9.33333 -5.12281,-13.33333 -12.35088,-14.59649 4.91228,-2.52632 7.22807,-7.08772 7.22807,-12.42105 0,-11.01755 -7.85965,-14.73685 -17.82456,-14.73685 z m 13.19298,22.66667 V 242.2807 h 1.05263 c 5.75439,0 8.77193,1.75439 8.77193,5.89474 0,4.8421 -3.08772,6.59649 -8.77193,6.59649 z m 0,25.05263 v -13.68421 h 4.14035 c 6.24562,0 9.68421,1.89474 9.68421,7.22807 0,4.5614 -3.43859,6.45614 -9.68421,6.45614 z"/>
		<path d="m 787.78452,261.01754 c 0,16.91228 12.07018,30.03509 29.19298,30.03509 16.63158,0 29.12281,-13.12281 29.12281,-30.03509 0,-16.91228 -13.05263,-29.96491 -29.12281,-29.96491 -15.92982,0 -29.19298,13.05263 -29.19298,29.96491 z m 14.24562,0 c 0,-8.63157 4.77193,-17.26315 14.94736,-17.26315 10.24562,0 14.8772,8.63158 14.8772,17.26315 0,8.63158 -4.35088,17.26316 -14.8772,17.26316 -10.80701,0 -14.94736,-8.63158 -14.94736,-17.26316 z"/>
		<path d="M 856.9216,232.10526 V 290 h 13.19298 V 267.12281 L 887.79879,290 h 16.77193 L 884.6409,266.07018 c 7.08772,-2.24562 11.85965,-8.07018 11.85965,-16.77193 0,-11.36842 -8.14035,-17.19299 -18.87719,-17.19299 z m 13.19298,25.68421 v -15.15789 h 1.54386 c 4.98246,0 10.94737,0.35088 10.94737,7.57895 0,7.22807 -5.96491,7.57894 -10.94737,7.57894 z"/>
		<path d="M 925.4161,232.10526 H 912.22312 V 290 h 13.19298 z"/>
		<path d="M 968.28232,232.10526 H 956.0718 L 932.70338,290 h 14.17544 l 4.2807,-11.57895 h 22.03509 L 977.47531,290 h 14.17544 z m 0.42106,34.73685 H 955.65075 L 962.10689,250 h 0.14035 z"/>
		<path d="m 1043.3317,232.10526 h -13.193 v 33.47369 c 0,9.68421 -2.9474,12.49123 -9.4035,12.49123 -6.4562,0 -9.4035,-2.80702 -9.4035,-12.49123 v -33.47369 h -13.19303 v 37.33334 c 0,14.31579 7.85963,21.61403 22.59653,21.61403 14.7368,0 22.5965,-7.29824 22.5965,-21.61403 z"/>
	</g>
</svg>
